<svg width="34" height="21" viewBox="0 0 34 21" fill="none" xmlns="http://www.w3.org/2000/svg">
<path d="M34 19.3805H0V21H34V19.3805Z" fill="#CB001C"/>
<path d="M34 17.7717H0V19.3912H34V17.7717Z" fill="white"/>
<path d="M34 16.1522H0V17.761H34V16.1522Z" fill="#CB001C"/>
<path d="M34 14.5435H0V16.163H34V14.5435Z" fill="white"/>
<path d="M34 12.924H0V14.5435H34V12.924Z" fill="#CB001C"/>
<path d="M34 11.3044H0V12.9132H34V11.3044Z" fill="white"/>
<path d="M34 9.69556H0V11.3151H34V9.69556Z" fill="#CB001C"/>
<path d="M34 8.07605H0V9.68483H34V8.07605Z" fill="white"/>
<path d="M34 6.46729H0V8.08679H34V6.46729Z" fill="#CB001C"/>
<path d="M34 4.84778H0V6.46729H34V4.84778Z" fill="white"/>
<path d="M34 3.22827H0V4.84778H34V3.22827Z" fill="#CB001C"/>
<path d="M34 1.61951H0V3.23902H34V1.61951Z" fill="white"/>
<path d="M34 0H0V1.61951H34V0Z" fill="#CB001C"/>
<path d="M15.531 0H0V11.3044H15.531V0Z" fill="#2A3560"/>
<path d="M1.39809 1.24414L1.53993 1.67315H1.96544L1.62098 1.94128L1.74255 2.37029L1.39809 2.10216L1.06377 2.37029L1.19547 1.94128L0.851013 1.67315H1.26639L1.39809 1.24414Z" fill="white"/>
<path d="M1.39809 3.13171L1.53993 3.56072H1.96544L1.62098 3.82885L1.74255 4.25786L1.39809 3.98973L1.06377 4.25786L1.19547 3.82885L0.851013 3.56072H1.26639L1.39809 3.13171Z" fill="white"/>
<path d="M1.39809 5.01941L1.53993 5.44842H1.96544L1.62098 5.71655L1.74255 6.14556L1.39809 5.87743L1.06377 6.14556L1.19547 5.71655L0.851013 5.44842H1.26639L1.39809 5.01941Z" fill="white"/>
<path d="M1.39809 6.9071L1.53993 7.33611H1.96544L1.62098 7.60424L1.74255 8.02253L1.39809 7.76512L1.06377 8.02253L1.19547 7.60424L0.851013 7.33611H1.26639L1.39809 6.9071Z" fill="white"/>
<path d="M1.39809 8.79468L1.53993 9.22369H1.96544L1.62098 9.49182L1.74255 9.9101L1.39809 9.6527L1.06377 9.9101L1.19547 9.49182L0.851013 9.22369H1.26639L1.39809 8.79468Z" fill="white"/>
<path d="M2.64422 2.24158L2.77592 2.67059H3.20143L2.85697 2.93872L2.98867 3.357L2.64422 3.0996L2.29976 3.357L2.43146 2.93872L2.08701 2.67059H2.51251L2.64422 2.24158Z" fill="white"/>
<path d="M2.64422 4.12927L2.77592 4.55828H3.20143L2.85697 4.81569L2.98867 5.2447L2.64422 4.98729L2.29976 5.2447L2.43146 4.81569L2.08701 4.55828H2.51251L2.64422 4.12927Z" fill="white"/>
<path d="M2.64422 6.01685L2.77592 6.44585H3.20143L2.85697 6.70326L2.98867 7.13227L2.64422 6.87486L2.29976 7.13227L2.43146 6.70326L2.08701 6.44585H2.51251L2.64422 6.01685Z" fill="white"/>
<path d="M2.64422 7.90454L2.77592 8.33355H3.20143L2.85697 8.59096L2.98867 9.01996L2.64422 8.75183L2.29976 9.01996L2.43146 8.59096L2.08701 8.33355H2.51251L2.64422 7.90454Z" fill="white"/>
<path d="M3.90047 1.24414L4.03218 1.67315H4.45768L4.11323 1.94128L4.24493 2.37029L3.90047 2.10216L3.55602 2.37029L3.68772 1.94128L3.34326 1.67315H3.76877L3.90047 1.24414Z" fill="white"/>
<path d="M3.90047 3.13171L4.03218 3.56072H4.45768L4.11323 3.82885L4.24493 4.25786L3.90047 3.98973L3.55602 4.25786L3.68772 3.82885L3.34326 3.56072H3.76877L3.90047 3.13171Z" fill="white"/>
<path d="M3.90047 5.01941L4.03218 5.44842H4.45768L4.11323 5.71655L4.24493 6.14556L3.90047 5.87743L3.55602 6.14556L3.68772 5.71655L3.34326 5.44842H3.76877L3.90047 5.01941Z" fill="white"/>
<path d="M3.90047 6.9071L4.03218 7.33611H4.45768L4.11323 7.60424L4.24493 8.02253L3.90047 7.76512L3.55602 8.02253L3.68772 7.60424L3.34326 7.33611H3.76877L3.90047 6.9071Z" fill="white"/>
<path d="M3.90047 8.79468L4.03218 9.22369H4.45768L4.11323 9.49182L4.24493 9.9101L3.90047 9.6527L3.55602 9.9101L3.68772 9.49182L3.34326 9.22369H3.76877L3.90047 8.79468Z" fill="white"/>
<path d="M5.1466 2.24158L5.2783 2.67059H5.70381L5.35935 2.93872L5.49105 3.357L5.1466 3.0996L4.80214 3.357L4.93384 2.93872L4.58939 2.67059H5.01489L5.1466 2.24158Z" fill="white"/>
<path d="M5.1466 4.12927L5.2783 4.55828H5.70381L5.35935 4.81569L5.49105 5.2447L5.1466 4.98729L4.80214 5.2447L4.93384 4.81569L4.58939 4.55828H5.01489L5.1466 4.12927Z" fill="white"/>
<path d="M5.1466 6.01685L5.2783 6.44585H5.70381L5.35935 6.70326L5.49105 7.13227L5.1466 6.87486L4.80214 7.13227L4.93384 6.70326L4.58939 6.44585H5.01489L5.1466 6.01685Z" fill="white"/>
<path d="M5.1466 7.90454L5.2783 8.33355H5.70381L5.35935 8.59096L5.49105 9.01996L5.1466 8.75183L4.80214 9.01996L4.93384 8.59096L4.58939 8.33355H5.01489L5.1466 7.90454Z" fill="white"/>
<path d="M6.40285 1.24414L6.53456 1.67315H6.96006L6.61561 1.94128L6.74731 2.37029L6.40285 2.10216L6.0584 2.37029L6.1901 1.94128L5.84564 1.67315H6.27115L6.40285 1.24414Z" fill="white"/>
<path d="M6.40285 3.13171L6.53456 3.56072H6.96006L6.61561 3.82885L6.74731 4.25786L6.40285 3.98973L6.0584 4.25786L6.1901 3.82885L5.84564 3.56072H6.27115L6.40285 3.13171Z" fill="white"/>
<path d="M6.40285 5.01941L6.53456 5.44842H6.96006L6.61561 5.71655L6.74731 6.14556L6.40285 5.87743L6.0584 6.14556L6.1901 5.71655L5.84564 5.44842H6.27115L6.40285 5.01941Z" fill="white"/>
<path d="M6.40285 6.9071L6.53456 7.33611H6.96006L6.61561 7.60424L6.74731 8.02253L6.40285 7.76512L6.0584 8.02253L6.1901 7.60424L5.84564 7.33611H6.27115L6.40285 6.9071Z" fill="white"/>
<path d="M6.40285 8.79468L6.53456 9.22369H6.96006L6.61561 9.49182L6.74731 9.9101L6.40285 9.6527L6.0584 9.9101L6.1901 9.49182L5.84564 9.22369H6.27115L6.40285 8.79468Z" fill="white"/>
<path d="M7.64898 2.24158L7.77055 2.67059H8.19606L7.8516 2.93872L7.9833 3.357L7.64898 3.0996L7.30452 3.357L7.42609 2.93872L7.09177 2.67059H7.50714L7.64898 2.24158Z" fill="white"/>
<path d="M7.64898 4.12927L7.77055 4.55828H8.19606L7.8516 4.81569L7.9833 5.2447L7.64898 4.98729L7.30452 5.2447L7.42609 4.81569L7.09177 4.55828H7.50714L7.64898 4.12927Z" fill="white"/>
<path d="M7.64898 6.01685L7.77055 6.44585H8.19606L7.8516 6.70326L7.9833 7.13227L7.64898 6.87486L7.30452 7.13227L7.42609 6.70326L7.09177 6.44585H7.50714L7.64898 6.01685Z" fill="white"/>
<path d="M7.64898 7.90454L7.77055 8.33355H8.19606L7.8516 8.59096L7.9833 9.01996L7.64898 8.75183L7.30452 9.01996L7.42609 8.59096L7.09177 8.33355H7.50714L7.64898 7.90454Z" fill="white"/>
<path d="M8.8951 1.24414L9.02681 1.67315H9.45231L9.10786 1.94128L9.23956 2.37029L8.8951 2.10216L8.56078 2.37029L8.68235 1.94128L8.34802 1.67315H8.7634L8.8951 1.24414Z" fill="white"/>
<path d="M8.8951 3.13171L9.02681 3.56072H9.45231L9.10786 3.82885L9.23956 4.25786L8.8951 3.98973L8.56078 4.25786L8.68235 3.82885L8.34802 3.56072H8.7634L8.8951 3.13171Z" fill="white"/>
<path d="M8.8951 5.01941L9.02681 5.44842H9.45231L9.10786 5.71655L9.23956 6.14556L8.8951 5.87743L8.56078 6.14556L8.68235 5.71655L8.34802 5.44842H8.7634L8.8951 5.01941Z" fill="white"/>
<path d="M8.8951 6.9071L9.02681 7.33611H9.45231L9.10786 7.60424L9.23956 8.02253L8.8951 7.76512L8.56078 8.02253L8.68235 7.60424L8.34802 7.33611H8.7634L8.8951 6.9071Z" fill="white"/>
<path d="M8.8951 8.79468L9.02681 9.22369H9.45231L9.10786 9.49182L9.23956 9.9101L8.8951 9.6527L8.56078 9.9101L8.68235 9.49182L8.34802 9.22369H8.7634L8.8951 8.79468Z" fill="white"/>
<path d="M10.1412 2.24158L10.2729 2.67059H10.6984L10.354 2.93872L10.4857 3.357L10.1412 3.0996L9.79677 3.357L9.92847 2.93872L9.58401 2.67059H10.0095L10.1412 2.24158Z" fill="white"/>
<path d="M10.1412 4.12927L10.2729 4.55828H10.6984L10.354 4.81569L10.4857 5.2447L10.1412 4.98729L9.79677 5.2447L9.92847 4.81569L9.58401 4.55828H10.0095L10.1412 4.12927Z" fill="white"/>
<path d="M10.1412 6.01685L10.2729 6.44585H10.6984L10.354 6.70326L10.4857 7.13227L10.1412 6.87486L9.79677 7.13227L9.92847 6.70326L9.58401 6.44585H10.0095L10.1412 6.01685Z" fill="white"/>
<path d="M10.1412 7.90454L10.2729 8.33355H10.6984L10.354 8.59096L10.4857 9.01996L10.1412 8.75183L9.79677 9.01996L9.92847 8.59096L9.58401 8.33355H10.0095L10.1412 7.90454Z" fill="white"/>
<path d="M11.3975 1.24414L11.5292 1.67315H11.9547L11.6102 1.94128L11.7419 2.37029L11.3975 2.10216L11.0632 2.37029L11.1847 1.94128L10.8504 1.67315H11.2658L11.3975 1.24414Z" fill="white"/>
<path d="M11.3975 3.13171L11.5292 3.56072H11.9547L11.6102 3.82885L11.7419 4.25786L11.3975 3.98973L11.0632 4.25786L11.1847 3.82885L10.8504 3.56072H11.2658L11.3975 3.13171Z" fill="white"/>
<path d="M11.3975 5.01941L11.5292 5.44842H11.9547L11.6102 5.71655L11.7419 6.14556L11.3975 5.87743L11.0632 6.14556L11.1847 5.71655L10.8504 5.44842H11.2658L11.3975 5.01941Z" fill="white"/>
<path d="M11.3975 6.9071L11.5292 7.33611H11.9547L11.6102 7.60424L11.7419 8.02253L11.3975 7.76512L11.0632 8.02253L11.1847 7.60424L10.8504 7.33611H11.2658L11.3975 6.9071Z" fill="white"/>
<path d="M11.3975 8.79468L11.5292 9.22369H11.9547L11.6102 9.49182L11.7419 9.9101L11.3975 9.6527L11.0632 9.9101L11.1847 9.49182L10.8504 9.22369H11.2658L11.3975 8.79468Z" fill="white"/>
<path d="M12.6436 2.24158L12.7753 2.67059H13.2008L12.8564 2.93872L12.978 3.357L12.6436 3.0996L12.2992 3.357L12.4309 2.93872L12.0864 2.67059H12.5119L12.6436 2.24158Z" fill="white"/>
<path d="M12.6436 4.12927L12.7753 4.55828H13.2008L12.8564 4.81569L12.978 5.2447L12.6436 4.98729L12.2992 5.2447L12.4309 4.81569L12.0864 4.55828H12.5119L12.6436 4.12927Z" fill="white"/>
<path d="M12.6436 6.01685L12.7753 6.44585H13.2008L12.8564 6.70326L12.978 7.13227L12.6436 6.87486L12.2992 7.13227L12.4309 6.70326L12.0864 6.44585H12.5119L12.6436 6.01685Z" fill="white"/>
<path d="M12.6436 7.90454L12.7753 8.33355H13.2008L12.8564 8.59096L12.978 9.01996L12.6436 8.75183L12.2992 9.01996L12.4309 8.59096L12.0864 8.33355H12.5119L12.6436 7.90454Z" fill="white"/>
<path d="M13.8999 1.24414L14.0316 1.67315H14.4571L14.1126 1.94128L14.2444 2.37029L13.8999 2.10216L13.5554 2.37029L13.6871 1.94128L13.3427 1.67315H13.7682L13.8999 1.24414Z" fill="white"/>
<path d="M13.8999 3.13171L14.0316 3.56072H14.4571L14.1126 3.82885L14.2444 4.25786L13.8999 3.98973L13.5554 4.25786L13.6871 3.82885L13.3427 3.56072H13.7682L13.8999 3.13171Z" fill="white"/>
<path d="M13.8999 5.01941L14.0316 5.44842H14.4571L14.1126 5.71655L14.2444 6.14556L13.8999 5.87743L13.5554 6.14556L13.6871 5.71655L13.3427 5.44842H13.7682L13.8999 5.01941Z" fill="white"/>
<path d="M13.8999 6.9071L14.0316 7.33611H14.4571L14.1126 7.60424L14.2444 8.02253L13.8999 7.76512L13.5554 8.02253L13.6871 7.60424L13.3427 7.33611H13.7682L13.8999 6.9071Z" fill="white"/>
<path d="M13.8999 8.79468L14.0316 9.22369H14.4571L14.1126 9.49182L14.2444 9.9101L13.8999 9.6527L13.5554 9.9101L13.6871 9.49182L13.3427 9.22369H13.7682L13.8999 8.79468Z" fill="white"/>
</svg>
