<svg width="34" height="20" viewBox="0 0 34 20" fill="none" xmlns="http://www.w3.org/2000/svg">
<path d="M34 0H0V20H34V0Z" fill="#3C9242"/>
<path d="M5.24792 9.99998L17 17.5689L28.7622 9.99998L17 2.43103L5.24792 9.99998Z" fill="#EDC226"/>
<path d="M21.9541 9.99998C21.9541 12.7579 19.7354 14.9949 17 14.9949C14.2646 14.9949 12.0459 12.7579 12.0459 9.99998C12.0459 7.24206 14.2646 4.99487 17 4.99487C19.7354 4.99487 21.9541 7.24206 21.9541 9.99998Z" fill="#2D146E"/>
<path d="M14.1734 7.85498C13.596 7.85498 13.0286 7.89584 12.4714 7.97755C12.36 8.2227 12.2789 8.47807 12.208 8.74364C12.8463 8.63128 13.5048 8.57 14.1734 8.57C17.0811 8.57 19.7354 9.67316 21.7414 11.4913C21.8224 11.236 21.8832 10.9704 21.9136 10.7048C19.8165 8.9275 17.1216 7.85498 14.1734 7.85498Z" fill="white"/>
<path fill-rule="evenodd" clip-rule="evenodd" d="M12.7753 8.53933C12.8868 8.52911 12.978 8.40654 12.9577 8.27375C12.9476 8.14096 12.8361 8.04903 12.7247 8.05925C12.6031 8.06946 12.5221 8.19203 12.5423 8.32482C12.5524 8.45761 12.6639 8.54954 12.7753 8.53933ZM12.7753 8.4474C12.8361 8.4474 12.8868 8.36568 12.8766 8.28396C12.8766 8.20225 12.8057 8.14096 12.7348 8.15118C12.6639 8.15118 12.6132 8.23289 12.6234 8.31461C12.6335 8.39632 12.6943 8.45761 12.7652 8.4474" fill="#3C9242"/>
<path fill-rule="evenodd" clip-rule="evenodd" d="M13.1603 8.49844H13.2414L13.2312 8.31457H13.4237C13.5048 8.29415 13.5656 8.22264 13.5554 8.14093C13.5554 8.05921 13.4744 7.99792 13.3933 7.99792L13.1198 8.01835L13.1502 8.49844H13.1603ZM13.2312 8.22264H13.4136C13.4136 8.22264 13.4642 8.18179 13.4642 8.14093C13.4642 8.11028 13.4338 8.07964 13.4035 8.08986H13.2211V8.22264H13.2312Z" fill="#3C9242"/>
<path d="M13.5554 8.4678C13.5554 8.3963 13.5453 8.2533 13.444 8.2533H13.3123C13.4541 8.2533 13.4744 8.40651 13.4744 8.4678" fill="#3C9242"/>
<path fill-rule="evenodd" clip-rule="evenodd" d="M13.7581 8.45758H13.9809C14.0924 8.45758 14.1836 8.35544 14.1836 8.24308V8.17158C14.1836 8.05922 14.0823 7.96729 13.9708 7.96729H13.7479V8.44737L13.7581 8.45758ZM13.8391 8.36565H13.9708C14.0417 8.36565 14.1025 8.30436 14.0924 8.23286V8.192C14.0924 8.1205 14.0316 8.06943 13.9708 8.06943H13.8391V8.37586V8.36565Z" fill="#3C9242"/>
<path d="M14.3558 8.44741L14.7813 8.46784V8.3759L14.4369 8.36569L14.447 8.24312L14.7205 8.25333V8.17161L14.447 8.1614V8.06947L14.7712 8.07968V7.98775L14.3761 7.97754L14.3558 8.44741Z" fill="#3C9242"/>
<path d="M14.9535 8.47801H15.0346L15.065 8.16136L15.1258 8.48822L15.2068 8.49844L15.3284 8.18179L15.298 8.50865L15.379 8.51886L15.4196 8.03878L15.3081 8.02857L15.1764 8.34522L15.1156 8.00814L14.994 7.99792L14.9535 8.47801Z" fill="#3C9242"/>
<path d="M15.9261 8.59039L16.2807 8.64146L16.2908 8.56996L16.0274 8.51889L16.0477 8.41674L16.2706 8.44738L16.2807 8.36567L16.0578 8.33502L16.068 8.26352L16.3314 8.30438L16.3415 8.22266L16.0072 8.16138L15.9261 8.59039Z" fill="#3C9242"/>
<path fill-rule="evenodd" clip-rule="evenodd" d="M16.8278 8.76406L16.9088 8.78449L16.9595 8.61084L17.1419 8.6517C17.2229 8.67213 17.304 8.62105 17.3242 8.54955C17.3445 8.46784 17.2938 8.38612 17.2128 8.36569L16.9494 8.29419L16.8278 8.75384V8.76406ZM16.9798 8.52912L17.152 8.5802C17.152 8.5802 17.2128 8.56998 17.2229 8.53934C17.2229 8.50869 17.2128 8.47805 17.1824 8.46784L17.0101 8.42698L16.9798 8.54955V8.52912Z" fill="#3C9242"/>
<path fill-rule="evenodd" clip-rule="evenodd" d="M17.4052 8.91729L17.4863 8.94793L17.5369 8.7845L17.7092 8.84579C17.7902 8.86622 17.8713 8.82536 17.9017 8.75386C17.9321 8.67214 17.8814 8.59043 17.8105 8.57L17.5471 8.48828L17.4052 8.93772V8.91729ZM17.5673 8.69257L17.7396 8.74364C17.7396 8.74364 17.8004 8.74364 17.8105 8.70279C17.8206 8.67214 17.8105 8.6415 17.77 8.63128L17.5977 8.58021L17.5572 8.69257H17.5673Z" fill="#3C9242"/>
<path d="M17.7902 9.03983C17.8105 8.97854 17.851 8.83554 17.7598 8.8049L17.6383 8.76404C17.7801 8.8049 17.7295 8.9479 17.7092 9.0194" fill="#3C9242"/>
<path fill-rule="evenodd" clip-rule="evenodd" d="M18.1752 9.18279C18.2867 9.22364 18.4082 9.16236 18.4589 9.03978C18.5095 8.91721 18.4589 8.78442 18.3475 8.74356C18.236 8.7027 18.1043 8.76399 18.0638 8.88657C18.0131 9.00914 18.0638 9.14193 18.1854 9.18279M18.2157 9.10107C18.2867 9.13171 18.3576 9.08064 18.388 9.00914C18.4184 8.92742 18.388 8.84571 18.3272 8.82528C18.2664 8.80485 18.1854 8.84571 18.155 8.91721C18.1246 8.99892 18.155 9.08064 18.2157 9.10107Z" fill="#3C9242"/>
<path fill-rule="evenodd" clip-rule="evenodd" d="M18.7324 9.40748C18.8439 9.45855 18.9756 9.39727 19.0262 9.27469C19.0769 9.15212 19.0262 9.01933 18.9249 8.96826C18.8135 8.91719 18.6919 8.97847 18.6412 9.10105C18.5906 9.22362 18.6412 9.35641 18.7426 9.40748M18.7831 9.32577C18.8439 9.35641 18.9249 9.31555 18.9553 9.23384C18.9857 9.16233 18.9553 9.0704 18.9046 9.04997C18.8439 9.01933 18.7628 9.06019 18.7324 9.1419C18.702 9.21341 18.7223 9.30534 18.7831 9.32577Z" fill="#3C9242"/>
<path d="M18.8641 9.20325L19.0262 9.27475L18.9958 9.33604L18.8337 9.26453L18.8641 9.20325Z" fill="#3C9242"/>
<path d="M18.9654 9.24414L19.0262 9.27478L18.9249 9.48929L18.8743 9.46886L18.9654 9.24414Z" fill="#3C9242"/>
<path fill-rule="evenodd" clip-rule="evenodd" d="M19.087 9.57098L19.1681 9.61184L19.2491 9.4484L19.4213 9.54033C19.4922 9.58119 19.5834 9.54033 19.624 9.46883C19.6645 9.39733 19.624 9.3054 19.5632 9.26454L19.32 9.14197L19.1073 9.56076L19.087 9.57098ZM19.2795 9.3769L19.4416 9.45862C19.4416 9.45862 19.5024 9.45862 19.5226 9.42797C19.5328 9.39733 19.5226 9.35647 19.4922 9.34626L19.3302 9.26454L19.2795 9.3769Z" fill="#3C9242"/>
<path d="M19.4517 9.74467C19.4821 9.68338 19.5429 9.55059 19.4517 9.49952L19.3302 9.43823C19.4619 9.50973 19.4011 9.64252 19.3707 9.70381" fill="#3C9242"/>
<path d="M19.624 9.84677L19.9988 10.0511L20.0393 9.97956L19.7354 9.80592L19.7962 9.70377L20.0292 9.83656L20.0697 9.75484L19.8367 9.63227L19.8874 9.54034L20.1609 9.70377L20.2116 9.63227L19.857 9.42798L19.624 9.84677Z" fill="#3C9242"/>
<path d="M20.3129 10.0715C20.3129 10.0715 20.3129 10.1532 20.3635 10.194C20.4243 10.2349 20.4547 10.2247 20.475 10.194C20.5256 10.1123 20.2318 9.98974 20.323 9.84674C20.4041 9.72416 20.5358 9.81609 20.5864 9.84674C20.6371 9.87738 20.7181 9.96931 20.6573 10.0612L20.5662 9.99995C20.5662 9.99995 20.5662 9.91824 20.5155 9.88759C20.475 9.85695 20.4345 9.84674 20.4142 9.88759C20.3737 9.94888 20.6675 10.0715 20.5662 10.2247C20.5054 10.3268 20.3838 10.286 20.3129 10.2247C20.242 10.1838 20.1508 10.0817 20.2116 9.97953L20.3028 10.0408L20.3129 10.0715Z" fill="#3C9242"/>
<path d="M20.8194 10.4085C20.8194 10.4085 20.8194 10.4903 20.8701 10.5311C20.9207 10.572 20.9714 10.572 20.9815 10.5515C21.0322 10.4698 20.7384 10.337 20.8498 10.2043C20.9309 10.0817 21.0626 10.1838 21.1132 10.2247C21.1639 10.2655 21.2348 10.3473 21.1639 10.4494L21.0828 10.3881C21.0828 10.3881 21.0828 10.3064 21.0322 10.2758C20.9917 10.2451 20.9613 10.2349 20.9309 10.2758C20.8802 10.337 21.1639 10.48 21.0727 10.6128C21.0018 10.715 20.8802 10.6639 20.8194 10.6128C20.7586 10.572 20.6573 10.4596 20.7283 10.3677L20.8194 10.429V10.4085Z" fill="#3C9242"/>
<path fill-rule="evenodd" clip-rule="evenodd" d="M21.2956 10.9601C21.3868 11.0316 21.5286 11.0112 21.6097 10.909C21.6907 10.8069 21.6806 10.6639 21.5894 10.5924C21.4982 10.5209 21.3564 10.5413 21.2753 10.6435C21.1943 10.7456 21.2044 10.8886 21.2956 10.9601ZM21.3462 10.8886C21.3969 10.9295 21.4881 10.9192 21.5387 10.8477C21.5894 10.7865 21.5793 10.6945 21.5387 10.6537C21.4881 10.6128 21.407 10.623 21.3462 10.6945C21.2956 10.7558 21.2956 10.8477 21.3462 10.8886Z" fill="#3C9242"/>
<path d="M12.9577 8.8866L12.8868 9.09089L12.9881 9.12153L12.9577 8.8866Z" fill="white"/>
<path d="M12.9577 8.8866L13.0185 9.09089L12.9172 9.12153L12.9577 8.8866Z" fill="white"/>
<path d="M13.1502 9.02966H12.9476V9.14202L13.1502 9.02966Z" fill="white"/>
<path d="M13.1502 9.02966L12.9881 9.16245L12.9172 9.07052L13.1502 9.02966Z" fill="white"/>
<path d="M12.7551 9.02966L12.9273 9.16245L12.9881 9.07052L12.7551 9.02966Z" fill="white"/>
<path d="M12.7551 9.02966H12.9678V9.14202L12.7551 9.02966Z" fill="white"/>
<path d="M13.0793 9.27472L13.0084 9.07043L12.9172 9.10108L13.0793 9.27472Z" fill="white"/>
<path d="M13.0793 9.27481L12.907 9.14202L12.9678 9.0603L13.0793 9.27481Z" fill="white"/>
<path d="M12.826 9.27481L12.9982 9.14202L12.9374 9.0603L12.826 9.27481Z" fill="white"/>
<path d="M12.826 9.27472L12.8969 9.07043L12.9982 9.10108L12.826 9.27472Z" fill="white"/>
<path d="M13.3933 10.9908L13.3224 11.1951L13.4339 11.2258L13.3933 10.9908Z" fill="white"/>
<path d="M13.3933 10.9908L13.4541 11.1951L13.3629 11.2258L13.3933 10.9908Z" fill="white"/>
<path d="M13.596 11.1338H13.3832V11.2461L13.596 11.1338Z" fill="white"/>
<path d="M13.596 11.1338L13.4237 11.2666L13.3629 11.1746L13.596 11.1338Z" fill="white"/>
<path d="M13.1907 11.1338L13.3629 11.2666L13.4237 11.1746L13.1907 11.1338Z" fill="white"/>
<path d="M13.1907 11.1338H13.4035V11.2461L13.1907 11.1338Z" fill="white"/>
<path d="M13.5149 11.379L13.4541 11.1747L13.3528 11.2053L13.5149 11.379Z" fill="white"/>
<path d="M13.5149 11.3789L13.3427 11.2461L13.4035 11.1644L13.5149 11.3789Z" fill="white"/>
<path d="M13.2616 11.3789L13.444 11.2461L13.3731 11.1644L13.2616 11.3789Z" fill="white"/>
<path d="M13.2616 11.379L13.3325 11.1747L13.4339 11.2053L13.2616 11.379Z" fill="white"/>
<path d="M12.7855 11.5015L12.7449 11.6445L12.8057 11.6649L12.7855 11.5015Z" fill="white"/>
<path d="M12.7855 11.5015L12.826 11.6445L12.7652 11.6649L12.7855 11.5015Z" fill="white"/>
<path d="M12.9172 11.6036H12.7753V11.6751L12.9172 11.6036Z" fill="white"/>
<path d="M12.9172 11.6036L12.8057 11.6956L12.7652 11.6343L12.9172 11.6036Z" fill="white"/>
<path d="M12.6538 11.6036L12.7652 11.6956L12.8057 11.6343L12.6538 11.6036Z" fill="white"/>
<path d="M12.6538 11.6036H12.7956V11.6751L12.6538 11.6036Z" fill="white"/>
<path d="M12.8665 11.7671L12.826 11.6343L12.7551 11.6547L12.8665 11.7671Z" fill="white"/>
<path d="M12.8665 11.7671L12.7551 11.6854L12.7956 11.6241L12.8665 11.7671Z" fill="white"/>
<path d="M12.7044 11.7671L12.8158 11.6854L12.7753 11.6241L12.7044 11.7671Z" fill="white"/>
<path d="M12.7044 11.7671L12.7449 11.6343L12.8057 11.6547L12.7044 11.7671Z" fill="white"/>
<path d="M13.8796 10.7968L13.8492 10.8887L13.8898 10.9091L13.8796 10.7968Z" fill="white"/>
<path d="M13.8796 10.7968L13.91 10.8887L13.8594 10.9091L13.8796 10.7968Z" fill="white"/>
<path d="M13.9708 10.8682H13.8796V10.9192L13.9708 10.8682Z" fill="white"/>
<path d="M13.9708 10.8682L13.8898 10.9295L13.8695 10.8784L13.9708 10.8682Z" fill="white"/>
<path d="M13.7783 10.8682L13.8695 10.9295L13.8898 10.8784L13.7783 10.8682Z" fill="white"/>
<path d="M13.7783 10.8682H13.8796V10.9192L13.7783 10.8682Z" fill="white"/>
<path d="M13.9404 10.9806L13.8999 10.8784L13.8594 10.8988L13.9404 10.9806Z" fill="white"/>
<path d="M13.9404 10.9806L13.8594 10.9193L13.8898 10.8784L13.9404 10.9806Z" fill="white"/>
<path d="M13.8188 10.9806L13.8999 10.9193L13.8695 10.8784L13.8188 10.9806Z" fill="white"/>
<path d="M13.8188 10.9806L13.8492 10.8784L13.8999 10.8988L13.8188 10.9806Z" fill="white"/>
<path d="M14.4267 11.522L14.376 11.6854L14.447 11.716L14.4267 11.522Z" fill="white"/>
<path d="M14.4267 11.522L14.4774 11.6854L14.3963 11.716L14.4267 11.522Z" fill="white"/>
<path d="M14.5888 11.6445H14.4166V11.7365L14.5888 11.6445Z" fill="white"/>
<path d="M14.5888 11.6445L14.447 11.7467L14.3963 11.6752L14.5888 11.6445Z" fill="white"/>
<path d="M14.2545 11.6445L14.3963 11.7467L14.447 11.6752L14.2545 11.6445Z" fill="white"/>
<path d="M14.2545 11.6445H14.4368V11.7365L14.2545 11.6445Z" fill="white"/>
<path d="M14.528 11.8386L14.4773 11.6752L14.3862 11.7058L14.528 11.8386Z" fill="white"/>
<path d="M14.528 11.8386L14.3862 11.7364L14.4368 11.6649L14.528 11.8386Z" fill="white"/>
<path d="M14.3254 11.8386L14.4672 11.7364L14.4065 11.6649L14.3254 11.8386Z" fill="white"/>
<path d="M14.3254 11.8386L14.3761 11.6752L14.4571 11.7058L14.3254 11.8386Z" fill="white"/>
<path d="M14.2747 12.0122L14.2241 12.1859L14.3051 12.2165L14.2747 12.0122Z" fill="white"/>
<path d="M14.2747 12.0122L14.3254 12.1859L14.2444 12.2165L14.2747 12.0122Z" fill="white"/>
<path d="M14.447 12.145H14.2646V12.2267L14.447 12.145Z" fill="white"/>
<path d="M14.447 12.145L14.3051 12.2472L14.2444 12.1757L14.447 12.145Z" fill="white"/>
<path d="M14.1126 12.145L14.2545 12.2472L14.3051 12.1757L14.1126 12.145Z" fill="white"/>
<path d="M14.1126 12.145H14.2849V12.2267L14.1126 12.145Z" fill="white"/>
<path d="M14.3761 12.3391L14.3254 12.1654L14.2444 12.196L14.3761 12.3391Z" fill="white"/>
<path d="M14.3761 12.3391L14.2342 12.2369L14.295 12.1654L14.3761 12.3391Z" fill="white"/>
<path d="M14.1734 12.3391L14.3153 12.2369L14.2646 12.1654L14.1734 12.3391Z" fill="white"/>
<path d="M14.1734 12.3391L14.2241 12.1654L14.3153 12.196L14.1734 12.3391Z" fill="white"/>
<path d="M18.5399 8.23291L18.469 8.4372L18.5805 8.46784L18.5399 8.23291Z" fill="white"/>
<path d="M18.5399 8.23291L18.6109 8.4372L18.4994 8.46784L18.5399 8.23291Z" fill="white"/>
<path d="M18.7426 8.37585H18.5298V8.48821L18.7426 8.37585Z" fill="white"/>
<path d="M18.7426 8.37585L18.5703 8.50864L18.5096 8.41671L18.7426 8.37585Z" fill="white"/>
<path d="M18.3373 8.37585L18.5095 8.50864L18.5703 8.41671L18.3373 8.37585Z" fill="white"/>
<path d="M18.3373 8.37585H18.5501V8.48821L18.3373 8.37585Z" fill="white"/>
<path d="M18.6615 8.62104L18.6007 8.41675L18.4994 8.44739L18.6615 8.62104Z" fill="white"/>
<path d="M18.6615 8.621L18.4893 8.49842L18.5501 8.40649L18.6615 8.621Z" fill="white"/>
<path d="M18.4184 8.621L18.5906 8.49842L18.5298 8.40649L18.4184 8.621Z" fill="white"/>
<path d="M18.4184 8.62104L18.4792 8.41675L18.5805 8.44739L18.4184 8.62104Z" fill="white"/>
<path d="M20.475 11.5424L20.4041 11.7466L20.5155 11.7773L20.475 11.5424Z" fill="white"/>
<path d="M20.475 11.5424L20.5459 11.7466L20.4446 11.7773L20.475 11.5424Z" fill="white"/>
<path d="M20.6776 11.6854H20.4648V11.7876L20.6776 11.6854Z" fill="white"/>
<path d="M20.6776 11.6854L20.5054 11.808L20.4446 11.7263L20.6776 11.6854Z" fill="white"/>
<path d="M20.2724 11.6854L20.4446 11.808L20.5054 11.7263L20.2724 11.6854Z" fill="white"/>
<path d="M20.2724 11.6854H20.4851V11.7876L20.2724 11.6854Z" fill="white"/>
<path d="M20.6067 11.9305L20.5358 11.7262L20.4344 11.7568L20.6067 11.9305Z" fill="white"/>
<path d="M20.6067 11.9306L20.4344 11.7978L20.4952 11.7161L20.6067 11.9306Z" fill="white"/>
<path d="M20.3534 11.9306L20.5256 11.7978L20.4648 11.7161L20.3534 11.9306Z" fill="white"/>
<path d="M20.3534 11.9305L20.4142 11.7262L20.5155 11.7568L20.3534 11.9305Z" fill="white"/>
<path d="M21.1639 11.6548L21.1234 11.7876L21.1943 11.8182L21.1639 11.6548Z" fill="white"/>
<path d="M21.1639 11.6548L21.2146 11.7876L21.1436 11.8182L21.1639 11.6548Z" fill="white"/>
<path d="M21.2956 11.7568H21.1538V11.8283L21.2956 11.7568Z" fill="white"/>
<path d="M21.2956 11.7568L21.1842 11.8386L21.1436 11.7773L21.2956 11.7568Z" fill="white"/>
<path d="M21.0322 11.7568L21.1436 11.8386L21.1842 11.7773L21.0322 11.7568Z" fill="white"/>
<path d="M21.0322 11.7568H21.174V11.8283L21.0322 11.7568Z" fill="white"/>
<path d="M21.245 11.9203L21.2044 11.7773L21.1335 11.7978L21.245 11.9203Z" fill="white"/>
<path d="M21.245 11.9203L21.1335 11.8284L21.174 11.7773L21.245 11.9203Z" fill="white"/>
<path d="M21.0829 11.9203L21.1943 11.8284L21.1538 11.7773L21.0829 11.9203Z" fill="white"/>
<path d="M21.0829 11.9203L21.1234 11.7773L21.1943 11.7978L21.0829 11.9203Z" fill="white"/>
<path d="M20.6776 12.0122L20.627 12.1859L20.708 12.2165L20.6776 12.0122Z" fill="white"/>
<path d="M20.6776 12.0122L20.7283 12.1859L20.6472 12.2165L20.6776 12.0122Z" fill="white"/>
<path d="M20.8498 12.145H20.6675V12.2267L20.8498 12.145Z" fill="white"/>
<path d="M20.8498 12.145L20.708 12.2472L20.6472 12.1757L20.8498 12.145Z" fill="white"/>
<path d="M20.5155 12.145L20.6573 12.2472L20.708 12.1757L20.5155 12.145Z" fill="white"/>
<path d="M20.5155 12.145H20.6877V12.2267L20.5155 12.145Z" fill="white"/>
<path d="M20.7789 12.3391L20.7283 12.1654L20.6472 12.196L20.7789 12.3391Z" fill="white"/>
<path d="M20.7789 12.3391L20.6371 12.2369L20.6877 12.1654L20.7789 12.3391Z" fill="white"/>
<path d="M20.5763 12.3391L20.7181 12.2369L20.6675 12.1654L20.5763 12.3391Z" fill="white"/>
<path d="M20.5763 12.3391L20.627 12.1654L20.7181 12.196L20.5763 12.3391Z" fill="white"/>
<path d="M19.4821 13.0643L19.4315 13.2278L19.5125 13.2584L19.4821 13.0643Z" fill="white"/>
<path d="M19.4821 13.0643L19.5429 13.2278L19.4518 13.2584L19.4821 13.0643Z" fill="white"/>
<path d="M19.6543 13.1869H19.472V13.2788L19.6543 13.1869Z" fill="white"/>
<path d="M19.6544 13.1869L19.5125 13.289L19.4518 13.2175L19.6544 13.1869Z" fill="white"/>
<path d="M19.32 13.1869L19.4619 13.289L19.5125 13.2175L19.32 13.1869Z" fill="white"/>
<path d="M19.32 13.1869H19.4923V13.2788L19.32 13.1869Z" fill="white"/>
<path d="M19.5835 13.3912L19.5328 13.2175L19.4518 13.2482L19.5835 13.3912Z" fill="white"/>
<path d="M19.5835 13.3911L19.4416 13.2788L19.4923 13.2073L19.5835 13.3911Z" fill="white"/>
<path d="M19.3808 13.3911L19.5227 13.2788L19.472 13.2073L19.3808 13.3911Z" fill="white"/>
<path d="M19.3808 13.3912L19.4315 13.2175L19.5227 13.2482L19.3808 13.3912Z" fill="white"/>
<path d="M19.472 13.6057L19.4315 13.7385L19.5024 13.7589L19.472 13.6057Z" fill="white"/>
<path d="M19.472 13.6057L19.5227 13.7385L19.4518 13.7589L19.472 13.6057Z" fill="white"/>
<path d="M19.6138 13.7079H19.472V13.7692L19.6138 13.7079Z" fill="white"/>
<path d="M19.6138 13.7079L19.4923 13.7896L19.4518 13.7283L19.6138 13.7079Z" fill="white"/>
<path d="M19.3403 13.7079L19.4517 13.7896L19.5024 13.7283L19.3403 13.7079Z" fill="white"/>
<path d="M19.3403 13.7079H19.4821V13.7692L19.3403 13.7079Z" fill="white"/>
<path d="M19.5632 13.8611L19.5125 13.7283L19.4518 13.7487L19.5632 13.8611Z" fill="white"/>
<path d="M19.5632 13.861L19.4416 13.7793L19.4821 13.718L19.5632 13.861Z" fill="white"/>
<path d="M19.391 13.861L19.5125 13.7793L19.4619 13.718L19.391 13.861Z" fill="white"/>
<path d="M19.391 13.8611L19.4416 13.7283L19.5024 13.7487L19.391 13.8611Z" fill="white"/>
<path d="M19.9785 12.7068L19.9279 12.8396L19.9988 12.86L19.9785 12.7068Z" fill="white"/>
<path d="M19.9785 12.7068L20.0191 12.8396L19.9583 12.86L19.9785 12.7068Z" fill="white"/>
<path d="M20.1103 12.7987H19.9684V12.8702L20.1103 12.7987Z" fill="white"/>
<path d="M20.1102 12.7987L19.9988 12.8906L19.9583 12.8294L20.1102 12.7987Z" fill="white"/>
<path d="M19.8469 12.7987L19.9583 12.8906L19.9988 12.8294L19.8469 12.7987Z" fill="white"/>
<path d="M19.8469 12.7987H19.9887V12.8702L19.8469 12.7987Z" fill="white"/>
<path d="M20.0596 12.9621L20.0191 12.8293L19.9482 12.8498L20.0596 12.9621Z" fill="white"/>
<path d="M20.0596 12.9622L19.9482 12.8805L19.9887 12.8192L20.0596 12.9622Z" fill="white"/>
<path d="M19.8975 12.9622L20.0089 12.8805L19.9684 12.8192L19.8975 12.9622Z" fill="white"/>
<path d="M19.8975 12.9621L19.938 12.8293L20.0089 12.8498L19.8975 12.9621Z" fill="white"/>
<path d="M20.3737 12.4208L20.323 12.5842L20.404 12.6149L20.3737 12.4208Z" fill="white"/>
<path d="M20.3737 12.4208L20.4344 12.5842L20.3433 12.6149L20.3737 12.4208Z" fill="white"/>
<path d="M20.5459 12.5433H20.3635V12.6251L20.5459 12.5433Z" fill="white"/>
<path d="M20.5459 12.5433L20.404 12.6455L20.3534 12.574L20.5459 12.5433Z" fill="white"/>
<path d="M20.2116 12.5433L20.3534 12.6455L20.4041 12.574L20.2116 12.5433Z" fill="white"/>
<path d="M20.2116 12.5433H20.3838V12.6251L20.2116 12.5433Z" fill="white"/>
<path d="M20.475 12.7374L20.4243 12.574L20.3433 12.5944L20.475 12.7374Z" fill="white"/>
<path d="M20.475 12.7375L20.3331 12.6353L20.3838 12.5638L20.475 12.7375Z" fill="white"/>
<path d="M20.2724 12.7375L20.4142 12.6353L20.3635 12.5638L20.2724 12.7375Z" fill="white"/>
<path d="M20.2724 12.7374L20.323 12.574L20.4041 12.5944L20.2724 12.7374Z" fill="white"/>
<path d="M19.4619 12.6047L19.4214 12.7477L19.4821 12.7682L19.4619 12.6047Z" fill="white"/>
<path d="M19.4619 12.6047L19.5125 12.7477L19.4416 12.7682L19.4619 12.6047Z" fill="white"/>
<path d="M19.6037 12.7068H19.4518V12.7783L19.6037 12.7068Z" fill="white"/>
<path d="M19.6037 12.7068L19.4821 12.7885L19.4416 12.7374L19.6037 12.7068Z" fill="white"/>
<path d="M19.3302 12.7068L19.4416 12.7885L19.4821 12.7374L19.3302 12.7068Z" fill="white"/>
<path d="M19.3302 12.7068H19.472V12.7783L19.3302 12.7068Z" fill="white"/>
<path d="M19.5531 12.8703L19.5024 12.7273L19.4315 12.7579L19.5531 12.8703Z" fill="white"/>
<path d="M19.5531 12.8703L19.4315 12.7784L19.472 12.7273L19.5531 12.8703Z" fill="white"/>
<path d="M19.3808 12.8703L19.4923 12.7784L19.4517 12.7273L19.3808 12.8703Z" fill="white"/>
<path d="M19.3808 12.8703L19.4214 12.7273L19.4923 12.7579L19.3808 12.8703Z" fill="white"/>
<path d="M15.1156 10.0204L15.0548 10.194L15.146 10.2145L15.1156 10.0204Z" fill="white"/>
<path d="M15.1156 10.0204L15.1663 10.194L15.0852 10.2145L15.1156 10.0204Z" fill="white"/>
<path d="M15.2777 10.1429H15.1055V10.2349L15.2777 10.1429Z" fill="white"/>
<path d="M15.2777 10.1429L15.1359 10.2553L15.0852 10.1838L15.2777 10.1429Z" fill="white"/>
<path d="M14.9434 10.1429L15.0852 10.2553L15.1359 10.1838L14.9434 10.1429Z" fill="white"/>
<path d="M14.9434 10.1429H15.1156V10.2349L14.9434 10.1429Z" fill="white"/>
<path d="M15.2169 10.3472L15.1663 10.1736L15.0751 10.2042L15.2169 10.3472Z" fill="white"/>
<path d="M15.2169 10.3472L15.0751 10.2451L15.1258 10.1736L15.2169 10.3472Z" fill="white"/>
<path d="M15.0042 10.3472L15.1561 10.2451L15.1055 10.1736L15.0042 10.3472Z" fill="white"/>
<path d="M15.0042 10.3472L15.065 10.1736L15.146 10.2042L15.0042 10.3472Z" fill="white"/>
<path d="M18.3474 9.60156L18.3069 9.73435L18.3778 9.75478L18.3474 9.60156Z" fill="white"/>
<path d="M18.3474 9.60156L18.3981 9.73435L18.3272 9.75478L18.3474 9.60156Z" fill="white"/>
<path d="M18.4893 9.70374H18.3474V9.77524L18.4893 9.70374Z" fill="white"/>
<path d="M18.4893 9.70374L18.3677 9.78545L18.3272 9.72416L18.4893 9.70374Z" fill="white"/>
<path d="M18.2157 9.70374L18.3272 9.78545L18.3677 9.72416L18.2157 9.70374Z" fill="white"/>
<path d="M18.2157 9.70374H18.3576V9.77524L18.2157 9.70374Z" fill="white"/>
<path d="M18.4386 9.86725L18.388 9.72424L18.3272 9.74467L18.4386 9.86725Z" fill="white"/>
<path d="M18.4386 9.86721L18.317 9.77528L18.3576 9.71399L18.4386 9.86721Z" fill="white"/>
<path d="M18.2664 9.86721L18.3778 9.77528L18.3373 9.71399L18.2664 9.86721Z" fill="white"/>
<path d="M18.2664 9.86725L18.3069 9.72424L18.3778 9.74467L18.2664 9.86725Z" fill="white"/>
<path d="M17 12.0327L16.9291 12.2268L17.0405 12.2676L17 12.0327Z" fill="white"/>
<path d="M17 12.0327L17.0709 12.2268L16.9696 12.2676L17 12.0327Z" fill="white"/>
<path d="M17.2026 12.1757H16.9899V12.288L17.2026 12.1757Z" fill="white"/>
<path d="M17.2026 12.1757L17.0304 12.2982L16.9696 12.2165L17.2026 12.1757Z" fill="white"/>
<path d="M16.7974 12.1757L16.9798 12.2982L17.0304 12.2165L16.7974 12.1757Z" fill="white"/>
<path d="M16.7974 12.1757H17.0101V12.288L16.7974 12.1757Z" fill="white"/>
<path d="M17.1216 12.4208L17.0608 12.2166L16.9595 12.2472L17.1216 12.4208Z" fill="white"/>
<path d="M17.1216 12.4208L16.9595 12.288L17.0101 12.2063L17.1216 12.4208Z" fill="white"/>
<path d="M16.8784 12.4208L17.0507 12.288L16.9899 12.2063L16.8784 12.4208Z" fill="white"/>
<path d="M16.8784 12.4208L16.9392 12.2166L17.0405 12.2472L16.8784 12.4208Z" fill="white"/>
<path d="M17.5775 11.0725L17.5167 11.2359L17.6079 11.2666L17.5775 11.0725Z" fill="white"/>
<path d="M17.5775 11.0725L17.6281 11.2359L17.5471 11.2666L17.5775 11.0725Z" fill="white"/>
<path d="M17.7396 11.1951H17.5674V11.2768L17.7396 11.1951Z" fill="white"/>
<path d="M17.7396 11.1951L17.5977 11.2972L17.5471 11.2257L17.7396 11.1951Z" fill="white"/>
<path d="M17.4052 11.1951L17.5471 11.2972L17.6079 11.2257L17.4052 11.1951Z" fill="white"/>
<path d="M17.4052 11.1951H17.5876V11.2768L17.4052 11.1951Z" fill="white"/>
<path d="M17.6788 11.3891L17.6281 11.2257L17.537 11.2564L17.6788 11.3891Z" fill="white"/>
<path d="M17.6788 11.3891L17.537 11.287L17.5876 11.2155L17.6788 11.3891Z" fill="white"/>
<path d="M17.466 11.3891L17.618 11.287L17.5673 11.2155L17.466 11.3891Z" fill="white"/>
<path d="M17.466 11.3891L17.5268 11.2257L17.6079 11.2564L17.466 11.3891Z" fill="white"/>
<path d="M17 10.623L16.9493 10.7865L17.0304 10.8171L17 10.623Z" fill="white"/>
<path d="M17 10.623L17.0507 10.7865L16.9797 10.8171L17 10.623Z" fill="white"/>
<path d="M17.1722 10.7456H16.9899V10.8375L17.1722 10.7456Z" fill="white"/>
<path d="M17.1722 10.7456L17.0304 10.8477L16.9797 10.7762L17.1722 10.7456Z" fill="white"/>
<path d="M16.8379 10.7456L16.9798 10.8477L17.0304 10.7762L16.8379 10.7456Z" fill="white"/>
<path d="M16.8379 10.7456H17.0102V10.8375L16.8379 10.7456Z" fill="white"/>
<path d="M17.1013 10.9397L17.0507 10.7762L16.9696 10.7967L17.1013 10.9397Z" fill="white"/>
<path d="M17.1013 10.9398L16.9595 10.8376L17.0101 10.7661L17.1013 10.9398Z" fill="white"/>
<path d="M16.8987 10.9398L17.0405 10.8376L16.9899 10.7661L16.8987 10.9398Z" fill="white"/>
<path d="M16.8987 10.9397L16.9494 10.7762L17.0405 10.7967L16.8987 10.9397Z" fill="white"/>
<path d="M16.5036 11.1031L16.4529 11.2462L16.5239 11.2666L16.5036 11.1031Z" fill="white"/>
<path d="M16.5036 11.1031L16.5441 11.2462L16.4833 11.2666L16.5036 11.1031Z" fill="white"/>
<path d="M16.6353 11.2053H16.4935V11.2768L16.6353 11.2053Z" fill="white"/>
<path d="M16.6353 11.2053L16.5239 11.287L16.4833 11.2258L16.6353 11.2053Z" fill="white"/>
<path d="M16.3719 11.2053L16.4833 11.287L16.5239 11.2258L16.3719 11.2053Z" fill="white"/>
<path d="M16.3719 11.2053H16.5036V11.2768L16.3719 11.2053Z" fill="white"/>
<path d="M16.5846 11.3687L16.5441 11.2257L16.4732 11.2461L16.5846 11.3687Z" fill="white"/>
<path d="M16.5846 11.3687L16.4732 11.2768L16.5137 11.2257L16.5846 11.3687Z" fill="white"/>
<path d="M16.4225 11.3687L16.534 11.2768L16.4935 11.2257L16.4225 11.3687Z" fill="white"/>
<path d="M16.4225 11.3687L16.4631 11.2257L16.534 11.2461L16.4225 11.3687Z" fill="white"/>
<path d="M16.7569 11.4913L16.7265 11.5935L16.767 11.6037L16.7569 11.4913Z" fill="white"/>
<path d="M16.7569 11.4913L16.7873 11.5935L16.7366 11.6037L16.7569 11.4913Z" fill="white"/>
<path d="M16.848 11.5627H16.7467V11.6138L16.848 11.5627Z" fill="white"/>
<path d="M16.848 11.5627L16.767 11.624L16.7366 11.5832L16.848 11.5627Z" fill="white"/>
<path d="M16.6555 11.5627L16.7366 11.624L16.767 11.5832L16.6555 11.5627Z" fill="white"/>
<path d="M16.6555 11.5627H16.7569V11.6138L16.6555 11.5627Z" fill="white"/>
<path d="M16.8075 11.6752L16.7771 11.5833L16.7366 11.5935L16.8075 11.6752Z" fill="white"/>
<path d="M16.8075 11.6751L16.7265 11.6241L16.7569 11.573L16.8075 11.6751Z" fill="white"/>
<path d="M16.6961 11.6751L16.7771 11.6241L16.7467 11.573L16.6961 11.6751Z" fill="white"/>
<path d="M16.6961 11.6752L16.7265 11.5833L16.7771 11.5935L16.6961 11.6752Z" fill="white"/>
<path d="M18.4893 13.1869L18.4285 13.3605L18.5197 13.381L18.4893 13.1869Z" fill="white"/>
<path d="M18.4893 13.1869L18.5399 13.3605L18.4589 13.381L18.4893 13.1869Z" fill="white"/>
<path d="M18.6514 13.3094H18.4792V13.4014L18.6514 13.3094Z" fill="white"/>
<path d="M18.6514 13.3094L18.5095 13.4116L18.4589 13.3401L18.6514 13.3094Z" fill="white"/>
<path d="M18.317 13.3094L18.4589 13.4116L18.5197 13.3401L18.317 13.3094Z" fill="white"/>
<path d="M18.317 13.3094H18.4994V13.4014L18.317 13.3094Z" fill="white"/>
<path d="M18.5906 13.5137L18.5298 13.3401L18.4488 13.3707L18.5906 13.5137Z" fill="white"/>
<path d="M18.5906 13.5138L18.4488 13.4015L18.4994 13.33L18.5906 13.5138Z" fill="white"/>
<path d="M18.3778 13.5138L18.5298 13.4015L18.469 13.33L18.3778 13.5138Z" fill="white"/>
<path d="M18.3778 13.5137L18.4386 13.3401L18.5197 13.3707L18.3778 13.5137Z" fill="white"/>
<path d="M18.9148 12.7783L18.8641 12.9111L18.9351 12.9418L18.9148 12.7783Z" fill="white"/>
<path d="M18.9148 12.7783L18.9553 12.9111L18.8844 12.9418L18.9148 12.7783Z" fill="white"/>
<path d="M19.0465 12.8805H18.9047V12.952L19.0465 12.8805Z" fill="white"/>
<path d="M19.0465 12.8805L18.9351 12.9622L18.8844 12.9009L19.0465 12.8805Z" fill="white"/>
<path d="M18.7729 12.8805L18.8844 12.9622L18.935 12.9009L18.7729 12.8805Z" fill="white"/>
<path d="M18.7729 12.8805H18.9148V12.952L18.7729 12.8805Z" fill="white"/>
<path d="M18.9958 13.0337L18.9452 12.9009L18.8844 12.9213L18.9958 13.0337Z" fill="white"/>
<path d="M18.9958 13.0336L18.8844 12.9519L18.9249 12.8906L18.9958 13.0336Z" fill="white"/>
<path d="M18.8337 13.0336L18.9452 12.9519L18.8945 12.8906L18.8337 13.0336Z" fill="white"/>
<path d="M18.8337 13.0337L18.8743 12.9009L18.9452 12.9213L18.8337 13.0337Z" fill="white"/>
<path d="M18.0942 12.6558L18.0536 12.7886L18.1144 12.8192L18.0942 12.6558Z" fill="white"/>
<path d="M18.0942 12.6558L18.1347 12.7886L18.0739 12.8192L18.0942 12.6558Z" fill="white"/>
<path d="M18.2259 12.7579H18.084V12.8294L18.2259 12.7579Z" fill="white"/>
<path d="M18.2259 12.7579L18.1144 12.8397L18.0739 12.7784L18.2259 12.7579Z" fill="white"/>
<path d="M17.9625 12.7579L18.0739 12.8397L18.1144 12.7784L17.9625 12.7579Z" fill="white"/>
<path d="M17.9625 12.7579H18.1043V12.8294L17.9625 12.7579Z" fill="white"/>
<path d="M18.1752 12.9111L18.1347 12.7783L18.0638 12.7987L18.1752 12.9111Z" fill="white"/>
<path d="M18.1752 12.9111L18.0638 12.8294L18.1043 12.7783L18.1752 12.9111Z" fill="white"/>
<path d="M18.0131 12.9111L18.1246 12.8294L18.084 12.7783L18.0131 12.9111Z" fill="white"/>
<path d="M18.0131 12.9111L18.0536 12.7783L18.1246 12.7987L18.0131 12.9111Z" fill="white"/>
<path d="M15.0143 12.431L14.9434 12.6353L15.0447 12.6762L15.0143 12.431Z" fill="white"/>
<path d="M15.0143 12.431L15.0751 12.6353L14.9738 12.6762L15.0143 12.431Z" fill="white"/>
<path d="M15.2169 12.5842H15.0042V12.6966L15.2169 12.5842Z" fill="white"/>
<path d="M15.2169 12.5842L15.0447 12.7068L14.9839 12.6251L15.2169 12.5842Z" fill="white"/>
<path d="M14.8117 12.5842L14.9839 12.7068L15.0447 12.6251L14.8117 12.5842Z" fill="white"/>
<path d="M14.8117 12.5842H15.0244V12.6966L14.8117 12.5842Z" fill="white"/>
<path d="M15.1359 12.8192L15.0751 12.6251L14.9738 12.6558L15.1359 12.8192Z" fill="white"/>
<path d="M15.1359 12.8192L14.9637 12.6966L15.0244 12.6149L15.1359 12.8192Z" fill="white"/>
<path d="M14.8826 12.8192L15.0548 12.6966L14.994 12.6149L14.8826 12.8192Z" fill="white"/>
<path d="M14.8826 12.8192L14.9535 12.6251L15.0548 12.6558L14.8826 12.8192Z" fill="white"/>
<path d="M17.0014 13.8406L16.9797 13.9019L17.0123 13.9121L17.0014 13.8406Z" fill="white"/>
<path d="M17.0007 13.8406L17.0224 13.9019L16.9899 13.9121L17.0007 13.8406Z" fill="white"/>
<path d="M17.0709 13.8917H17V13.9224L17.0709 13.8917Z" fill="white"/>
<path d="M17.0709 13.8917L17.0101 13.9326L16.9899 13.9019L17.0709 13.8917Z" fill="white"/>
<path d="M16.9291 13.8917L16.9899 13.9326L17.0101 13.9019L16.9291 13.8917Z" fill="white"/>
<path d="M16.9291 13.8917H17V13.9224L16.9291 13.8917Z" fill="white"/>
<path d="M17.0405 13.9633L17.0203 13.902L16.9899 13.9122L17.0405 13.9633Z" fill="white"/>
<path d="M17.0405 13.9633L16.9899 13.9224L17 13.902L17.0405 13.9633Z" fill="white"/>
<path d="M16.9595 13.9633L17.0101 13.9224L17 13.902L16.9595 13.9633Z" fill="white"/>
<path d="M16.9595 13.9633L16.9797 13.902L17.0101 13.9122L16.9595 13.9633Z" fill="white"/>
</svg>
